# xmcd
#
# Track frame offsets: 
#        150
#        11377
#        20774
#        31293
#        48304
#        62299
#        73599
#        82802
#        95516
#        106477
#        118706
#        128150
#
# Disc length: 1872 seconds
#
# Revision: 2
# Processed by: cddbd v1.5.2PL0 Copyright (c) Steve Scherf et al.
# Submitted via: ExactAudioCopy v0.99pb5
#
DISCID=91074e0c
DTITLE=The Locomotions - E'motions
DYEAR=2009
DGENRE=Rock and Roll
TTITLE0=Excuse me
TTITLE1=Evening glow
TTITLE2=Forgive me
TTITLE3=I'm calling
TTITLE4=Seo cruise
TTITLE5=Dokoto
TTITLE6=Hey lilly
TTITLE7=Lessons in love
TTITLE8=The hucklebuck
TTITLE9=Sorinonde
TTITLE10=The shope i'm in
TTITLE11=forty days
EXTD=
EXTT0=
EXTT1=
EXTT2=
EXTT3=
EXTT4=
EXTT5=
EXTT6=
EXTT7=
EXTT8=
EXTT9=
EXTT10=
EXTT11=
PLAYORDER=
